<?xml version="1.0" encoding="UTF-8" standalone="no"?>
<!-- Created with Inkscape (http://www.inkscape.org/) -->

<svg
   width="150"
   height="50"
   viewBox="0 0 39.6875 13.229167"
   version="1.1"
   id="svg5"
   xmlns="http://www.w3.org/2000/svg"
   xmlns:svg="http://www.w3.org/2000/svg">
  <defs
     id="defs2" />
  <g
     id="layer1">
    <g
       id="g1079"
       transform="translate(-10.508606,-0.17514343)">
      <path
         style="fill:#ff0000;fill-opacity:1;stroke:none;stroke-width:0.062681"
         id="rect31-6"
         width="3.7480695"
         height="8.9673443"
         x="-18.991697"
         y="-2.3262851"
         transform="rotate(-150)"
         d="m -17.991697,-2.3262851 h 1.748069 a 1,1 45 0 1 1,1 v 6.9673443 a 1,1 135 0 1 -1,1 h -1.748069 a 1,1 45 0 1 -1,-1 v -6.9673443 a 1,1 135 0 1 1,-1 z" />
      <path
         style="fill:#550000;fill-opacity:1;stroke:none;stroke-width:0.062681"
         id="rect31"
         width="3.7480695"
         height="8.9673443"
         x="-15.471301"
         y="-20.059557"
         d="m -14.471301,-20.059557 h 1.748069 a 1,1 45 0 1 1,1 v 6.967344 a 1,1 135 0 1 -1,1 h -1.748069 a 1,1 45 0 1 -1,-1 v -6.967344 a 1,1 135 0 1 1,-1 z"
         transform="rotate(150)" />
    </g>
    <g
       aria-label="WARRANTY"
       id="text1567"
       style="font-size:4.23333px;line-height:1.45;word-spacing:0.529167px;stroke-width:0.264583">
      <path
         d="M 17.490311,2.6318301 16.69036,5.7096758 H 16.229407 L 15.582418,3.1547951 14.949899,5.7096758 h -0.450618 l -0.81442,-3.0778457 h 0.419613 l 0.646988,2.5590147 0.636653,-2.5590147 h 0.415478 l 0.642855,2.5838194 0.642854,-2.5838194 z"
         id="path9101" />
      <path
         d="M 20.417261,5.7096758 H 19.981113 L 19.679322,4.8518477 h -1.331183 l -0.30179,0.8578281 H 17.63087 l 1.120345,-3.0778457 h 0.545702 z M 19.553232,4.5004483 19.013731,2.9894307 18.472162,4.5004483 Z"
         id="path9103" />
      <path
         d="M 23.431028,5.7096758 H 22.899795 L 21.870401,4.4859789 H 21.293693 V 5.7096758 H 20.884416 V 2.6318301 h 0.861962 q 0.279052,0 0.465087,0.037207 0.186035,0.03514 0.334863,0.1281574 0.167432,0.1054198 0.260449,0.2666502 0.09509,0.1591633 0.09509,0.4051429 0,0.3327959 -0.167432,0.558105 -0.167431,0.223242 -0.460953,0.33693 z M 22.473981,3.4979263 q 0,-0.1322915 -0.04754,-0.2335772 -0.04547,-0.1033528 -0.152962,-0.1736327 -0.08888,-0.059945 -0.21084,-0.082682 -0.121956,-0.024805 -0.28732,-0.024805 h -0.481624 v 1.1616852 h 0.413411 q 0.194303,0 0.338997,-0.033073 0.144694,-0.03514 0.245979,-0.1281574 0.09302,-0.086816 0.136426,-0.1984373 0.04547,-0.1136881 0.04547,-0.2873208 z"
         id="path9105" />
      <path
         d="M 26.374515,5.7096758 H 25.843282 L 24.813888,4.4859789 H 24.23718 V 5.7096758 H 23.827903 V 2.6318301 h 0.861962 q 0.279052,0 0.465087,0.037207 0.186035,0.03514 0.334863,0.1281574 0.167432,0.1054198 0.260449,0.2666502 0.09508,0.1591633 0.09508,0.4051429 0,0.3327959 -0.167432,0.558105 -0.167431,0.223242 -0.460953,0.33693 z M 25.417468,3.4979263 q 0,-0.1322915 -0.04754,-0.2335772 -0.04547,-0.1033528 -0.152962,-0.1736327 -0.08888,-0.059945 -0.21084,-0.082682 -0.121956,-0.024805 -0.28732,-0.024805 H 24.23718 v 1.1616852 h 0.413411 q 0.194303,0 0.338997,-0.033073 0.144694,-0.03514 0.24598,-0.1281574 0.09302,-0.086816 0.136425,-0.1984373 0.04547,-0.1136881 0.04547,-0.2873208 z"
         id="path9107" />
      <path
         d="M 29.198113,5.7096758 H 28.761964 L 28.460174,4.8518477 H 27.128991 L 26.8272,5.7096758 h -0.415478 l 1.120344,-3.0778457 h 0.545703 z M 28.334084,4.5004483 27.794582,2.9894307 27.253014,4.5004483 Z"
         id="path9109" />
      <path
         d="m 32.013443,5.7096758 h -0.506429 l -1.459341,-2.753318 v 2.753318 H 29.665268 V 2.6318301 h 0.634586 l 1.331184,2.5135395 V 2.6318301 h 0.382405 z"
         id="path9111" />
      <path
         d="m 35.02721,2.9956318 h -1.099674 v 2.714044 H 33.518259 V 2.9956318 H 32.418586 V 2.6318301 h 2.608624 z"
         id="path9113" />
      <path
         d="M 37.619297,2.6318301 36.53616,4.3598885 V 5.7096758 H 36.126883 V 4.4032967 L 35.039612,2.6318301 h 0.452685 l 0.841291,1.376659 0.84956,-1.376659 z"
         id="path9115" />
    </g>
    <g
       aria-label="MANAGER"
       id="text5543"
       style="font-size:4.93889px;line-height:1.25;stroke-width:0.264583">
      <path
         d="M 16.78078,10.263405 H 16.30329 V 7.1693639 L 15.304901,9.2746622 H 15.020336 L 14.029181,7.1693639 V 10.263405 H 13.583042 V 6.672581 h 0.651123 l 0.957392,1.9991894 0.926042,-1.9991894 h 0.663181 z"
         id="path9136" />
      <path
         d="M 20.576587,10.263405 H 20.067746 L 19.715657,9.2626044 h -1.553049 l -0.352089,1.0008006 h -0.484725 l 1.30707,-3.590824 h 0.636654 z M 19.568552,8.8526379 18.939133,7.0897822 18.307302,8.8526379 Z"
         id="path9138" />
      <path
         d="M 23.861142,10.263405 H 23.270308 L 21.567741,7.0511971 v 3.2122079 h -0.44614 V 6.672581 h 0.740352 l 1.553049,2.932466 V 6.672581 h 0.44614 z"
         id="path9140" />
      <path
         d="m 27.647302,10.263405 h -0.50884 L 26.786373,9.2626044 H 25.233324 L 24.881235,10.263405 H 24.39651 l 1.307069,-3.590824 h 0.636654 z M 26.639267,8.8526379 26.009848,7.0897822 25.378018,8.8526379 Z"
         id="path9142" />
      <path
         d="m 31.187483,9.9981324 q -0.294211,0.1350476 -0.643888,0.2363336 -0.347266,0.09887 -0.672828,0.09887 -0.419612,0 -0.76929,-0.115755 Q 28.7518,10.10183 28.50582,9.8703194 28.257429,9.6363973 28.122381,9.2867201 27.987333,8.9346312 27.987333,8.4643756 q 0,-0.8609296 0.501606,-1.3577124 0.504018,-0.4991945 1.381828,-0.4991945 0.306269,0 0.624596,0.074759 0.320739,0.072347 0.689708,0.2483914 v 0.5667184 h -0.04341 Q 31.066905,7.4394595 30.924622,7.3454083 30.78234,7.2513572 30.64488,7.1886564 30.478482,7.1138979 30.266264,7.0656665 q -0.209806,-0.050643 -0.47749,-0.050643 -0.602892,0 -0.954981,0.3882623 -0.349677,0.3858508 -0.349677,1.0466203 0,0.696943 0.366558,1.0852053 0.366559,0.3858508 0.998389,0.3858508 0.231511,0 0.46061,-0.04582 0.23151,-0.04582 0.405143,-0.1181668 V 8.8767536 H 29.7526 V 8.4571409 h 1.434883 z"
         id="path9144" />
      <path
         d="M 34.387634,10.263405 H 32.021886 V 6.672581 h 2.365748 v 0.4244359 h -1.888257 v 0.9839195 h 1.888257 V 8.5053722 H 32.499377 V 9.838969 h 1.888257 z"
         id="path9146" />
      <path
         d="m 38.115917,10.263405 h -0.619773 l -1.20096,-1.427648 h -0.672827 v 1.427648 H 35.144866 V 6.672581 h 1.005624 q 0.325561,0 0.542603,0.043408 0.217041,0.040997 0.390673,0.1495172 0.195337,0.12299 0.303858,0.3110922 0.110932,0.1856907 0.110932,0.4726672 0,0.3882624 -0.195337,0.6511232 -0.195337,0.2604493 -0.537779,0.3930855 z M 36.999362,7.6830278 q 0,-0.1543404 -0.05547,-0.2725072 Q 36.890841,7.2899423 36.76544,7.207949 36.661742,7.1380135 36.51946,7.1114863 36.377177,7.0825475 36.184252,7.0825475 h -0.561895 v 1.3553008 h 0.482313 q 0.226687,0 0.395497,-0.038585 0.16881,-0.040997 0.286977,-0.1495172 0.10852,-0.1012858 0.159163,-0.2315105 0.05306,-0.1326362 0.05306,-0.3352078 z"
         id="path9148" />
    </g>
  </g>
</svg>
